<?xml version="1.0" encoding="UTF-8" standalone="no"?>
<!DOCTYPE svg PUBLIC "-//W3C//DTD SVG 1.1//EN" "http://www.w3.org/Graphics/SVG/1.1/DTD/svg11.dtd">
<svg width="100%" height="100%" viewBox="0 0 105 164" version="1.1" xmlns="http://www.w3.org/2000/svg" xmlns:xlink="http://www.w3.org/1999/xlink" xml:space="preserve" style="fill-rule:evenodd;clip-rule:evenodd;stroke-linecap:round;stroke-linejoin:round;">
    <g id="g4202" transform="matrix(1,0,0,1,-314.01,-623.91)">
        <path id="path2403" d="M410.42,637.09L414.005,631.006C411.181,627.912 407.002,625.903 402.92,624.697L399.521,630.872C403.179,632.845 407.213,634.607 410.42,637.09L410.42,637.09Z" style="fill:rgb(179,60,18);fill-rule:nonzero;stroke:black;stroke-width:1.56px;"/>
        <path id="path2401" d="M380.74,652.12L391.84,627.265C401.176,630.447 409.902,635.718 417.282,641.423L402.102,663.923L380.74,652.12Z" style="fill:rgb(179,60,18);fill-rule:nonzero;stroke:black;stroke-width:1.56px;"/>
        <g id="g4154" transform="matrix(1.5521,0,0,1.5721,-167.26,-377.04)">
            <path id="path7431" d="M315,731.99L310.66,739.485L315.974,739.891L320.479,732.789L315,731.99L315,731.99Z" style="fill:rgb(179,60,18);fill-rule:nonzero;stroke:black;stroke-width:1.19px;"/>
            <path id="path7433" d="M315.49,728.88L315.185,718.141L332.231,727.465L322.24,732.29L319.481,736.085C316.269,734.899 315.268,733.811 313.552,732.691L315.49,728.88L315.49,728.88Z" style="fill:white;fill-rule:nonzero;stroke:black;stroke-width:1.2px;"/>
        </g>
        <path id="path2399" d="M319.88,752.14C326.384,757.874 337.022,763.755 348.601,768.123L405.231,666.363C396.851,658.983 387.591,653.503 376.631,649.983L319.88,752.14Z" style="fill:rgb(66,160,132);fill-rule:nonzero;stroke:black;stroke-width:1.77px;"/>
    </g>
</svg>
